<svg data-v-423bf9ae="" xmlns="http://www.w3.org/2000/svg" viewBox="0 0 406 90" class="iconLeftSlogan"><!----><!----><!----><g data-v-423bf9ae="" id="af1ebc92-977b-4b96-9ee9-37fe41573e28" fill="black" transform="matrix(6.269592676418792,0,0,6.269592676418792,106.55172140190896,-26.081504577238256)"><path d="M9.02 8.79L6.84 8.79L6.82 10.92C6.59 11.16 6.10 11.33 5.50 11.33C4.27 11.33 3.17 10.31 3.17 8.94C3.17 7.57 4.27 6.55 5.50 6.55C6.55 6.55 7.10 6.85 7.82 7.44L7.82 4.96C7.21 4.43 6.36 4.16 5.40 4.16C2.91 4.16 0.55 5.91 0.55 8.94C0.55 11.98 2.91 13.73 5.40 13.73C6.77 13.73 8.16 13.19 9.02 12.30ZM15.01 6.41C14.14 6.41 13.66 7.05 13.22 7.79L13.22 6.55L10.87 6.55L10.87 13.52L13.22 13.52L13.22 9.94C13.54 9.32 14.03 8.90 14.67 8.90C15.15 8.90 15.46 9.02 15.80 9.23L15.80 6.62C15.57 6.49 15.31 6.41 15.01 6.41ZM23.64 6.55L21.29 6.55L21.27 10.10C21.27 11.06 21 11.47 20.30 11.47C19.61 11.47 19.33 11.06 19.33 10.10L19.32 6.55L16.97 6.55L16.97 10.73C16.97 12.62 18.36 13.73 20.30 13.73C22.24 13.73 23.64 12.62 23.64 10.73ZM29.80 6.34C28.88 6.34 28.27 6.85 27.84 7.45L27.84 6.55L25.48 6.55L25.48 13.52L27.84 13.52L27.84 9.31C28.08 8.94 28.42 8.64 28.93 8.64C29.41 8.64 29.86 8.89 29.86 9.58L29.87 13.52L32.22 13.52L32.22 9.21C32.22 7.33 31.23 6.34 29.80 6.34ZM37.27 6.34C35.19 6.34 33.59 8.13 33.59 10.08C33.59 12.02 35.19 13.73 37.27 13.73C38.34 13.73 38.81 13.38 39.29 13.02L39.29 10.96C38.87 11.27 38.36 11.47 37.58 11.47C36.80 11.47 36.12 10.99 36.12 10.08C36.12 9.16 36.94 8.67 37.58 8.67C38.36 8.67 38.87 8.87 39.29 9.17L39.29 7.12C38.81 6.75 38.34 6.34 37.27 6.34ZM43.87 6.34C41.93 6.34 40.04 7.89 40.04 10.04C40.04 12.18 41.93 13.73 43.87 13.73C45.81 13.73 47.70 12.18 47.70 10.04C47.70 7.89 45.81 6.34 43.87 6.34ZM43.87 8.60C44.38 8.60 45.17 8.85 45.17 10.04C45.17 11.22 44.38 11.47 43.87 11.47C43.37 11.47 42.57 11.22 42.57 10.04C42.57 8.85 43.37 8.60 43.87 8.60Z"></path></g><!----><g data-v-423bf9ae="" id="1122f757-f0b8-4a9b-928d-454249a5c175" transform="matrix(2.8125,0,0,2.8125,0,0)" stroke="none" fill="black"><path d="M0 16.024L15.976 32 32 15.976 16.024 0 0 16.024zm15.989 7.323l-7.336-7.336 14.694-.022-7.358 7.358z"></path></g><!----><g data-v-423bf9ae="" id="8c20d24e-d8a8-46c8-863d-52b510ba909b" fill="black" transform="matrix(1.1972916998869365,0,0,1.1972916998869365,109.67672735726534,55.64185634707293)"><path d="M7.74 13.02L6.58 10.12L2.16 10.12L1.01 13.02L0.27 13.02L3.96 3.78L4.79 3.78L8.48 13.02L7.74 13.02ZM2.42 9.48L6.33 9.48L4.72 5.45L4.38 4.47L4.37 4.47L4.03 5.42L2.42 9.48ZM17.91 12.38L23.45 12.38L23.45 13.02L17.21 13.02L17.21 3.78L17.91 3.78L17.91 12.38ZM35.67 6.54L33.81 13.02L32.94 13.02L30.06 3.78L30.81 3.78L33.38 12.45L35.80 3.78L36.61 3.78L39.03 12.46L41.62 3.78L42.34 3.78L39.45 13.02L38.58 13.02L36.72 6.54L36.20 4.54L36.19 4.54L35.67 6.54ZM56.97 13.02L55.80 10.12L51.38 10.12L50.23 13.02L49.49 13.02L53.19 3.78L54.01 3.78L57.71 13.02L56.97 13.02ZM51.65 9.48L55.55 9.48L53.94 5.45L53.61 4.47L53.59 4.47L53.26 5.42L51.65 9.48ZM71.46 3.78L68.18 9.42L68.18 13.02L67.48 13.02L67.48 9.42L64.20 3.78L65.03 3.78L67.83 8.69L70.63 3.78L71.46 3.78ZM82.70 3.64L82.70 3.64Q85.30 3.64 86.18 5.68L86.18 5.68L85.58 6.17L85.58 6.17Q85.23 5.18 84.54 4.73L84.54 4.73L84.54 4.73Q83.85 4.28 82.71 4.28L82.71 4.28L82.71 4.28Q81.90 4.28 81.30 4.54L81.30 4.54L81.30 4.54Q80.70 4.79 80.38 5.22L80.38 5.22L80.38 5.22Q80.07 5.66 80.07 6.20L80.07 6.20L80.07 6.20Q80.07 6.73 80.33 7.08L80.33 7.08L80.33 7.08Q80.60 7.43 81.24 7.68L81.24 7.68L81.24 7.68Q81.87 7.92 82.99 8.12L82.99 8.12L82.99 8.12Q84.80 8.43 85.55 9.02L85.55 9.02L85.55 9.02Q86.31 9.60 86.31 10.64L86.31 10.64L86.31 10.64Q86.31 11.38 85.88 11.96L85.88 11.96L85.88 11.96Q85.44 12.53 84.65 12.84L84.65 12.84L84.65 12.84Q83.86 13.16 82.84 13.16L82.84 13.16L82.84 13.16Q81.38 13.16 80.38 12.58L80.38 12.58L80.38 12.58Q79.38 12.00 79.02 10.95L79.02 10.95L79.63 10.47L79.63 10.47Q79.91 11.47 80.76 11.99L80.76 11.99L80.76 11.99Q81.61 12.52 82.85 12.52L82.85 12.52L82.85 12.52Q84.06 12.52 84.82 12.03L84.82 12.03L84.82 12.03Q85.58 11.54 85.58 10.68L85.58 10.68L85.58 10.68Q85.58 9.94 84.96 9.51L84.96 9.51L84.96 9.51Q84.34 9.07 82.80 8.81L82.80 8.81L82.80 8.81Q81.49 8.58 80.74 8.26L80.74 8.26L80.74 8.26Q79.98 7.94 79.65 7.46L79.65 7.46L79.65 7.46Q79.32 6.99 79.32 6.27L79.32 6.27L79.32 6.27Q79.32 5.56 79.74 4.96L79.74 4.96L79.74 4.96Q80.15 4.35 80.91 4.00L80.91 4.00L80.91 4.00Q81.68 3.64 82.70 3.64L82.70 3.64ZM110.45 8.50L114.24 8.50L114.24 13.02L113.68 13.02L113.65 11.41L113.65 11.41Q113.27 12.25 112.47 12.71L112.47 12.71L112.47 12.71Q111.66 13.16 110.47 13.16L110.47 13.16L110.47 13.16Q109.21 13.16 108.27 12.58L108.27 12.58L108.27 12.58Q107.32 12.00 106.81 10.92L106.81 10.92L106.81 10.92Q106.30 9.84 106.30 8.40L106.30 8.40L106.30 8.40Q106.30 6.96 106.83 5.88L106.83 5.88L106.83 5.88Q107.35 4.80 108.30 4.22L108.30 4.22L108.30 4.22Q109.26 3.64 110.52 3.64L110.52 3.64L110.52 3.64Q111.93 3.64 112.83 4.20L112.83 4.20L112.83 4.20Q113.72 4.76 114.17 5.91L114.17 5.91L113.53 6.24L113.53 6.24Q113.20 5.28 112.44 4.78L112.44 4.78L112.44 4.78Q111.68 4.28 110.52 4.28L110.52 4.28L110.52 4.28Q109.48 4.28 108.70 4.78L108.70 4.78L108.70 4.78Q107.91 5.28 107.48 6.21L107.48 6.21L107.48 6.21Q107.04 7.14 107.04 8.40L107.04 8.40L107.04 8.40Q107.04 10.32 107.96 11.42L107.96 11.42L107.96 11.42Q108.88 12.52 110.50 12.52L110.50 12.52L110.50 12.52Q111.51 12.52 112.21 12.12L112.21 12.12L112.21 12.12Q112.91 11.72 113.25 11.07L113.25 11.07L113.25 11.07Q113.58 10.42 113.58 9.67L113.58 9.67L113.58 9.16L110.45 9.16L110.45 8.50ZM130.66 13.02L129.84 13.02L127.19 9.02L127.15 9.02L124.42 9.02L124.42 13.02L123.72 13.02L123.72 3.78L127.15 3.78L127.15 3.78Q128.53 3.78 129.35 4.48L129.35 4.48L129.35 4.48Q130.17 5.18 130.17 6.40L130.17 6.40L130.17 6.40Q130.17 7.41 129.58 8.07L129.58 8.07L129.58 8.07Q129.00 8.74 127.97 8.93L127.97 8.93L130.66 13.02ZM124.42 4.42L124.42 8.36L127.13 8.36L127.13 8.36Q128.25 8.36 128.85 7.85L128.85 7.85L128.85 7.85Q129.44 7.35 129.44 6.40L129.44 6.40L129.44 6.40Q129.44 5.45 128.85 4.93L128.85 4.93L128.85 4.93Q128.25 4.42 127.13 4.42L127.13 4.42L124.42 4.42ZM146.69 3.78L146.69 9.65L146.69 9.65Q146.69 11.35 145.77 12.26L145.77 12.26L145.77 12.26Q144.84 13.16 143.14 13.16L143.14 13.16L143.14 13.16Q141.43 13.16 140.50 12.26L140.50 12.26L140.50 12.26Q139.57 11.35 139.57 9.65L139.57 9.65L139.57 3.78L140.27 3.78L140.27 9.51L140.27 9.51Q140.27 10.99 140.99 11.75L140.99 11.75L140.99 11.75Q141.72 12.52 143.14 12.52L143.14 12.52L143.14 12.52Q144.54 12.52 145.26 11.75L145.26 11.75L145.26 11.75Q145.99 10.99 145.99 9.51L145.99 9.51L145.99 3.78L146.69 3.78ZM163.59 3.78L163.59 13.02L162.72 13.02L157.82 5.77L157.14 4.54L157.12 4.54L157.16 5.70L157.16 13.02L156.49 13.02L156.49 3.78L157.37 3.78L162.26 11.02L162.96 12.26L162.93 11.10L162.93 3.78L163.59 3.78ZM180.81 10.68L180.81 10.68Q180.42 11.86 179.44 12.51L179.44 12.51L179.44 12.51Q178.47 13.16 177.11 13.16L177.11 13.16L177.11 13.16Q175.85 13.16 174.90 12.58L174.90 12.58L174.90 12.58Q173.95 12.00 173.43 10.92L173.43 10.92L173.43 10.92Q172.91 9.84 172.91 8.40L172.91 8.40L172.91 8.40Q172.91 6.96 173.43 5.88L173.43 5.88L173.43 5.88Q173.95 4.80 174.90 4.22L174.90 4.22L174.90 4.22Q175.85 3.64 177.10 3.64L177.10 3.64L177.10 3.64Q179.87 3.64 180.68 5.92L180.68 5.92L180.00 6.24L180.00 6.24Q179.68 5.26 178.97 4.77L178.97 4.77L178.97 4.77Q178.26 4.28 177.14 4.28L177.14 4.28L177.14 4.28Q176.11 4.28 175.31 4.78L175.31 4.78L175.31 4.78Q174.52 5.28 174.09 6.21L174.09 6.21L174.09 6.21Q173.66 7.14 173.66 8.40L173.66 8.40L173.66 8.40Q173.66 9.66 174.08 10.59L174.08 10.59L174.08 10.59Q174.51 11.52 175.29 12.02L175.29 12.02L175.29 12.02Q176.06 12.52 177.11 12.52L177.11 12.52L177.11 12.52Q178.23 12.52 179.02 11.97L179.02 11.97L179.02 11.97Q179.80 11.42 180.11 10.42L180.11 10.42L180.81 10.68ZM193.54 3.64L193.54 3.64Q194.84 3.64 195.80 4.22L195.80 4.22L195.80 4.22Q196.76 4.80 197.27 5.87L197.27 5.87L197.27 5.87Q197.79 6.94 197.79 8.40L197.79 8.40L197.79 8.40Q197.79 9.86 197.27 10.93L197.27 10.93L197.27 10.93Q196.76 12.00 195.80 12.58L195.80 12.58L195.80 12.58Q194.84 13.16 193.54 13.16L193.54 13.16L193.54 13.16Q192.23 13.16 191.27 12.58L191.27 12.58L191.27 12.58Q190.32 12.00 189.80 10.93L189.80 10.93L189.80 10.93Q189.28 9.86 189.28 8.40L189.28 8.40L189.28 8.40Q189.28 6.94 189.80 5.87L189.80 5.87L189.80 5.87Q190.32 4.80 191.27 4.22L191.27 4.22L191.27 4.22Q192.23 3.64 193.54 3.64L193.54 3.64ZM193.54 4.28L193.54 4.28Q192.46 4.28 191.67 4.78L191.67 4.78L191.67 4.78Q190.88 5.28 190.45 6.21L190.45 6.21L190.45 6.21Q190.02 7.14 190.02 8.40L190.02 8.40L190.02 8.40Q190.02 9.66 190.45 10.59L190.45 10.59L190.45 10.59Q190.88 11.52 191.67 12.02L191.67 12.02L191.67 12.02Q192.46 12.52 193.54 12.52L193.54 12.52L193.54 12.52Q194.61 12.52 195.41 12.02L195.41 12.02L195.41 12.02Q196.21 11.52 196.64 10.59L196.64 10.59L196.64 10.59Q197.06 9.66 197.06 8.40L197.06 8.40L197.06 8.40Q197.06 7.14 196.64 6.21L196.64 6.21L196.64 6.21Q196.21 5.28 195.41 4.78L195.41 4.78L195.41 4.78Q194.61 4.28 193.54 4.28L193.54 4.28Z"></path></g></svg>