<svg data-v-423bf9ae="" xmlns="http://www.w3.org/2000/svg" viewBox="0 0 295.6113042597853 60" class="font"><!----><!----><!----><g data-v-423bf9ae="" id="ec5eeba0-f255-4a59-8aa2-61baad900018" fill="white" transform="matrix(6.269592676418792,0,0,6.269592676418792,-3.4482785980910364,-26.081504577238256)"><path d="M9.02 8.79L6.84 8.79L6.82 10.92C6.59 11.16 6.10 11.33 5.50 11.33C4.27 11.33 3.17 10.31 3.17 8.94C3.17 7.57 4.27 6.55 5.50 6.55C6.55 6.55 7.10 6.85 7.82 7.44L7.82 4.96C7.21 4.43 6.36 4.16 5.40 4.16C2.91 4.16 0.55 5.91 0.55 8.94C0.55 11.98 2.91 13.73 5.40 13.73C6.77 13.73 8.16 13.19 9.02 12.30ZM15.01 6.41C14.14 6.41 13.66 7.05 13.22 7.79L13.22 6.55L10.87 6.55L10.87 13.52L13.22 13.52L13.22 9.94C13.54 9.32 14.03 8.90 14.67 8.90C15.15 8.90 15.46 9.02 15.80 9.23L15.80 6.62C15.57 6.49 15.31 6.41 15.01 6.41ZM23.64 6.55L21.29 6.55L21.27 10.10C21.27 11.06 21 11.47 20.30 11.47C19.61 11.47 19.33 11.06 19.33 10.10L19.32 6.55L16.97 6.55L16.97 10.73C16.97 12.62 18.36 13.73 20.30 13.73C22.24 13.73 23.64 12.62 23.64 10.73ZM29.80 6.34C28.88 6.34 28.27 6.85 27.84 7.45L27.84 6.55L25.48 6.55L25.48 13.52L27.84 13.52L27.84 9.31C28.08 8.94 28.42 8.64 28.93 8.64C29.41 8.64 29.86 8.89 29.86 9.58L29.87 13.52L32.22 13.52L32.22 9.21C32.22 7.33 31.23 6.34 29.80 6.34ZM37.27 6.34C35.19 6.34 33.59 8.13 33.59 10.08C33.59 12.02 35.19 13.73 37.27 13.73C38.34 13.73 38.81 13.38 39.29 13.02L39.29 10.96C38.87 11.27 38.36 11.47 37.58 11.47C36.80 11.47 36.12 10.99 36.12 10.08C36.12 9.16 36.94 8.67 37.58 8.67C38.36 8.67 38.87 8.87 39.29 9.17L39.29 7.12C38.81 6.75 38.34 6.34 37.27 6.34ZM43.87 6.34C41.93 6.34 40.04 7.89 40.04 10.04C40.04 12.18 41.93 13.73 43.87 13.73C45.81 13.73 47.70 12.18 47.70 10.04C47.70 7.89 45.81 6.34 43.87 6.34ZM43.87 8.60C44.38 8.60 45.17 8.85 45.17 10.04C45.17 11.22 44.38 11.47 43.87 11.47C43.37 11.47 42.57 11.22 42.57 10.04C42.57 8.85 43.37 8.60 43.87 8.60Z"></path></g><!----><!----></svg>